<svg width="36" height="36" viewBox="0 0 36 36" fill="none" xmlns="http://www.w3.org/2000/svg">
<g clip-path="url(#clip0_743_59)">
<path d="M11.5609 13.884C12.1474 14.4705 12.1474 15.42 11.5609 16.005C10.9744 16.5915 10.0249 16.5915 9.43988 16.005C8.85338 15.4185 8.85338 14.469 9.43988 13.884C10.0264 13.2975 10.9759 13.2975 11.5609 13.884ZM32.3389 23.0115L31.4914 23.859C31.4509 25.7085 30.7339 27.5445 29.3389 28.9575L24.5884 33.7695C23.1739 35.202 21.2869 35.994 19.2739 36H19.2484C17.2459 36 15.3634 35.22 13.9474 33.804L2.82338 22.7745C1.84838 21.801 1.37738 20.4615 1.52738 19.095L2.67488 8.72099C2.75138 8.03699 3.28088 7.49249 3.96188 7.39949L14.2954 5.98649C15.6934 5.80049 17.1004 6.27599 18.0874 7.26299L29.2999 18.381C29.8804 18.9615 30.3454 19.6155 30.6964 20.313C31.9144 18.564 31.7434 16.1205 30.1834 14.5605L18.7969 3.45299C18.4534 3.10949 17.9794 2.95049 17.5204 3.01499L7.18688 4.42799C6.36338 4.53899 5.60888 3.96449 5.49638 3.14549C5.38538 2.32499 5.95988 1.56899 6.77888 1.45649L17.1139 0.0419903C18.4954 -0.15451 19.9174 0.32849 20.9059 1.31999L32.2894 12.4275C35.2084 15.345 35.2249 20.088 32.3374 23.013L32.3389 23.0115ZM27.1819 20.5065L15.9694 9.38849C15.6349 9.05399 15.1654 8.89949 14.6989 8.95799L5.52638 10.2135L4.50788 19.4235C4.45838 19.878 4.61438 20.325 4.93838 20.6475L16.0624 31.677C16.9159 32.532 18.0454 32.9985 19.2469 32.9985H19.2619C20.4709 32.9955 21.6034 32.52 22.4509 31.659L27.2014 26.847C28.9339 25.092 28.9249 22.2465 27.1804 20.5035L27.1819 20.5065Z" fill="#31363F"/>
</g>
<defs>
<clipPath id="clip0_743_59">
<rect width="36" height="36" fill="white"/>
</clipPath>
</defs>
</svg>
