<svg xmlns="http://www.w3.org/2000/svg" width="36" height="36" fill="currentColor"><path fill="#31363F" d="m34.127 26.116-13.663-9.704c3.96-3.251 5.767-4.74 4.763-9.133a7.387 7.387 0 0 0-5.526-5.526c-2.271-.517-4.602 0-6.389 1.428A7.427 7.427 0 0 0 10.5 9.018h3c0-1.367.614-2.639 1.683-3.492 1.086-.867 2.453-1.169 3.852-.848 1.591.363 2.905 1.677 3.268 3.269.575 2.517.223 2.89-3.757 6.159L1.833 26.146A4.681 4.681 0 0 0 0 29.848 4.66 4.66 0 0 0 4.653 34.5h26.694A4.66 4.66 0 0 0 36 29.847a4.703 4.703 0 0 0-1.873-3.73Zm-2.78 5.384H4.653A1.654 1.654 0 0 1 3 29.847c0-.512.244-1.004.61-1.284L18 18.34l14.347 10.193c.408.31.653.802.653 1.314 0 .912-.741 1.653-1.653 1.653Z"/></svg>